<svg width="64" height="64" viewBox="0 0 64 64" fill="none" xmlns="http://www.w3.org/2000/svg">
<rect width="64" height="64" rx="32" fill="#0C4CD7"/>
<path d="M12.7999 38.4C9.38654 39.7964 8.5332 43.2485 8.5332 44.8" stroke="#CAC9C9" stroke-width="6" stroke-linecap="round"/>
<path d="M55.4668 44.8C54.5359 41.3867 52.2345 40.5333 51.2001 40.5333" stroke="#CAC9C9" stroke-width="6" stroke-linecap="round"/>
<path d="M55.9561 18.0183C60.7327 26.1848 56.4065 36.0197 51.6296 44.1859C46.7358 52.552 42.3539 59.7334 31.9999 59.7334C21.494 59.7334 17.5716 52.7745 12.5642 44.2265C7.73785 35.9876 3.25334 26.1106 8.11709 17.8937C12.9455 9.73655 21.8339 4.26672 31.9999 4.26672C42.2176 4.26672 51.1447 9.7923 55.9561 18.0183Z" fill="#CAC9C9"/>
<path d="M14.9333 21.3334C27.9661 28.5377 42.0849 25.0856 49.0667 22.0838" stroke="#0C4CD7" stroke-width="10" stroke-linecap="round"/>
<circle cx="16.2846" cy="21.8312" r="2.77333" fill="#D9D9D9"/>
<circle cx="47.7155" cy="21.8312" r="2.77333" fill="#D9D9D9"/>
<path d="M25.6001 38.4L26.6455 41.5362C27.1453 43.0357 29.0485 43.485 30.1661 42.3673L30.578 41.9554C31.3137 41.2197 32.5385 41.341 33.1157 42.2067V42.2067C33.6593 43.0222 34.7901 43.1862 35.543 42.5587L40.5334 38.4" stroke="#0C4CD7" stroke-width="2" stroke-linecap="round"/>
</svg>
