<svg width="16" height="16" viewBox="0 0 16 16" fill="none" xmlns="http://www.w3.org/2000/svg">
<rect width="16" height="16" rx="8" fill="#0C4CD7"/>
<path d="M3.19997 9.60001C2.34663 9.9491 2.1333 10.8121 2.1333 11.2" stroke="#CAC9C9" stroke-width="1.5" stroke-linecap="round"/>
<path d="M13.8667 11.2C13.634 10.3467 13.0586 10.1333 12.8 10.1333" stroke="#CAC9C9" stroke-width="1.5" stroke-linecap="round"/>
<path d="M13.989 4.50458C15.1832 6.5462 14.1016 9.00491 12.9074 11.0465C11.6839 13.138 10.5885 14.9333 7.99998 14.9333C5.37349 14.9333 4.39291 13.1936 3.14105 11.0566C1.93446 8.99691 0.813335 6.52764 2.02927 4.47343C3.23637 2.43414 5.45849 1.06668 7.99998 1.06668C10.5544 1.06668 12.7862 2.44808 13.989 4.50458Z" fill="#CAC9C9"/>
<path d="M3.73334 5.33334C6.99152 7.13443 10.5212 6.27141 12.2667 5.52096" stroke="#0C4CD7" stroke-width="2.5" stroke-linecap="round"/>
<circle cx="4.07114" cy="5.4578" r="0.693333" fill="#D9D9D9"/>
<circle cx="11.9289" cy="5.4578" r="0.693333" fill="#D9D9D9"/>
<path d="M6.40002 9.60001L6.66137 10.3841C6.78633 10.7589 7.26212 10.8712 7.54153 10.5918L7.64451 10.4889C7.82843 10.3049 8.13464 10.3353 8.27892 10.5517V10.5517C8.41483 10.7555 8.69751 10.7965 8.88574 10.6397L10.1334 9.60001" stroke="#0C4CD7" stroke-width="0.5" stroke-linecap="round"/>
</svg>
