<svg width="32" height="32" viewBox="0 0 32 32" fill="none" xmlns="http://www.w3.org/2000/svg">
<rect width="32" height="32" rx="16" fill="#0C4CD7"/>
<path d="M6.39994 19.2C4.69327 19.8982 4.2666 21.6243 4.2666 22.4" stroke="#CAC9C9" stroke-width="3" stroke-linecap="round"/>
<path d="M27.7334 22.4C27.2679 20.6933 26.1172 20.2667 25.6001 20.2667" stroke="#CAC9C9" stroke-width="3" stroke-linecap="round"/>
<path d="M27.9781 9.00915C30.3663 13.0924 28.2033 18.0098 25.8148 22.093C23.3679 26.276 21.1769 29.8667 16 29.8667C10.747 29.8667 8.78581 26.3872 6.2821 22.1133C3.86892 17.9938 1.62667 13.0553 4.05854 8.94685C6.47275 4.86827 10.917 2.13336 16 2.13336C21.1088 2.13336 25.5724 4.89615 27.9781 9.00915Z" fill="#CAC9C9"/>
<path d="M7.46667 10.6667C13.983 14.2689 21.0424 12.5428 24.5333 11.0419" stroke="#0C4CD7" stroke-width="5" stroke-linecap="round"/>
<circle cx="8.14228" cy="10.9156" r="1.38667" fill="#D9D9D9"/>
<circle cx="23.8577" cy="10.9156" r="1.38667" fill="#D9D9D9"/>
<path d="M12.8 19.2L13.3227 20.7681C13.5727 21.5179 14.5242 21.7425 15.0831 21.1837L15.289 20.9777C15.6569 20.6099 16.2693 20.6705 16.5578 21.1034V21.1034C16.8297 21.5111 17.395 21.5931 17.7715 21.2794L20.2667 19.2" stroke="#0C4CD7" stroke-linecap="round"/>
</svg>
